<?xml version="1.0" encoding="UTF-8" standalone="no"?>
<!-- Svg Vector Icons : http://www.onlinewebfonts.com/icon -->

<svg
   version="1.1"
   x="0px"
   y="0px"
   viewBox="0 0 256 256"
   enable-background="new 0 0 256 256"
   xml:space="preserve"
   id="svg178"
   sodipodi:docname="resume.svg"
   inkscape:version="1.2.2 (732a01da63, 2022-12-09, custom)"
   xmlns:inkscape="http://www.inkscape.org/namespaces/inkscape"
   xmlns:sodipodi="http://sodipodi.sourceforge.net/DTD/sodipodi-0.dtd"
   xmlns="http://www.w3.org/2000/svg"
   xmlns:svg="http://www.w3.org/2000/svg"><defs
   id="defs182" /><sodipodi:namedview
   id="namedview180"
   pagecolor="#ffffff"
   bordercolor="#000000"
   borderopacity="0.25"
   inkscape:showpageshadow="2"
   inkscape:pageopacity="0.0"
   inkscape:pagecheckerboard="0"
   inkscape:deskcolor="#d1d1d1"
   showgrid="false"
   inkscape:zoom="2.2456165"
   inkscape:cx="89.730372"
   inkscape:cy="138.26938"
   inkscape:window-width="1850"
   inkscape:window-height="1016"
   inkscape:window-x="0"
   inkscape:window-y="0"
   inkscape:window-maximized="1"
   inkscape:current-layer="svg178" />
<metadata
   id="metadata148"> Svg Vector Icons : http://www.onlinewebfonts.com/icon </metadata>
<g
   id="g176"
   transform="matrix(1.0741372,0,0,1.0741372,-9.186683,-4.820256)"><g
     id="g174"><g
       id="g172"><path
         fill="#000000"
         d="M 28.2,29.6 C 19.8,31.2 12.1,38.8 10.4,47.3 10.1,49 10,72.7 10,121.2 l 0.1,71.4 1.3,3 c 2.6,6 7.2,10.7 13.1,13 2.7,1.1 3.1,1.1 24.1,1.3 l 21.4,0.2 1.2,3.8 c 2.3,7.1 5.7,10.8 11.1,12.2 3.6,0.9 87.5,0.9 91.1,0 5.4,-1.4 8.9,-5.2 11.1,-12.1 l 1.3,-3.9 21.4,-0.2 c 20.8,-0.2 21.4,-0.3 24,-1.3 5.4,-2.2 10.6,-7 12.6,-11.8 2.1,-5 2.1,-2.8 2.1,-77.1 0,-77.6 0.2,-73 -3,-78.9 C 240,35.4 233.4,30.7 227.1,29.5 223.6,28.9 31.8,29 28.2,29.6 Z m 201.2,7.9 c 3,1.4 6.4,4.6 7.9,7.5 l 1.3,2.4 v 72.1 72.1 l -1.2,2.4 c -1.6,3.3 -5.1,6.6 -8.4,7.9 l -2.8,1.1 -96.1,0.1 c -65.3,0.1 -97.2,0 -99.4,-0.4 -1.8,-0.3 -4.1,-1 -5.2,-1.5 -2.9,-1.5 -6.3,-5.2 -7.4,-8.3 -1,-2.6 -1,-2.6 -0.9,-74.1 l 0.1,-71.5 1.3,-2.4 c 1.2,-2.4 4.5,-5.8 6.6,-6.9 3.4,-1.9 1.5,-1.8 103.5,-1.7 l 98.5,0.1 z"
         id="path150" /><path
         fill="#000000"
         d="m 37.1,51.7 c -3,0.9 -5,2.7 -6.5,5.6 l -1.2,2.5 v 59.4 c 0,43.2 0.1,60 0.5,61.3 0.8,2.6 3.1,5.1 5.9,6.4 l 2.4,1.1 h 89.8 89.7 l 2.4,-1.1 c 2.9,-1.3 4.1,-2.7 5.4,-5.5 1,-2.1 1,-2.8 1,-61.9 V 59.7 l -1.2,-2.5 c -0.7,-1.4 -2,-3 -2.8,-3.7 -3.7,-2.8 2.3,-2.6 -94.5,-2.6 -72.7,0.1 -89.2,0.2 -90.9,0.8 z m 180.1,6.1 c 2.8,1.1 3.1,2.5 3.1,11.9 V 78 H 128 35.6 v -8.5 c 0,-9.4 0.2,-10.3 2.9,-11.6 1.6,-0.8 6.8,-0.9 89.4,-0.9 74.7,0.1 87.9,0.2 89.3,0.8 z m 3,73.8 -0.1,47.4 -1.3,1.3 -1.3,1.3 H 128 38.4 L 37,180 35.6,178.5 V 131.4 84.3 h 92.4 92.3 z"
         id="path152" /><path
         fill="#000000"
         d="m 180,62.2 c -2,1 -3,3 -3,5.7 0,1.9 0.2,2.5 1.6,3.9 2.9,2.9 7.8,2.1 9.5,-1.4 1,-2.1 1,-4 -0.2,-5.9 -1.6,-2.8 -4.9,-3.8 -7.9,-2.3 z"
         id="path154" /><path
         fill="#000000"
         d="m 197.1,62.2 c -2,1 -3,2.8 -3,5.7 0,1.9 0.2,2.4 1.6,3.8 2.9,2.9 7.8,2.1 9.5,-1.4 1,-2.1 1,-4 -0.2,-5.9 -1.7,-2.8 -4.9,-3.7 -7.9,-2.2 z"
         id="path156" /><path
         fill="#000000"
         d="m 49.3,63.7 c -0.2,0.1 -0.3,2 -0.3,4 0,2.9 0.1,3.7 0.8,4 0.4,0.1 11.6,0.3 24.9,0.3 20.2,0 24.2,-0.1 24.7,-0.7 0.3,-0.4 0.5,-2 0.4,-4.2 l -0.1,-3.5 -25,-0.1 c -13.9,-0.1 -25.3,0 -25.4,0.2 z"
         id="path158" /><path
         fill="#000000"
         d="m 67.8,98.3 c -7.3,2.6 -11.1,10.3 -8.6,17.6 1,2.9 4,6.3 7,7.8 2,1 3.1,1.3 5.8,1.3 12.7,0 18.6,-15.3 9.2,-23.8 -3.6,-3.3 -9,-4.5 -13.4,-2.9 z"
         id="path160" /><path
         fill="#000000"
         d="m 128.7,98.7 c -0.6,0.9 -0.8,2.7 -0.8,10.2 0,8.6 0,9.2 1,10.1 1,1 1.6,1 38.1,1 36.5,0 37.1,0 38.1,-1 0.9,-0.9 1,-1.6 1,-10.4 0,-8.6 -0.1,-9.5 -0.9,-10.2 -0.8,-0.8 -4.1,-0.8 -38.3,-0.8 h -37.4 z"
         id="path162" /><path
         fill="#000000"
         d="m 53.2,126.3 c -1.6,0.9 -2.4,1.7 -3.3,3.4 l -1.1,2.3 0.8,6 c 2.7,20.8 3.2,24.6 3.9,25.8 0.4,0.8 1.4,1.9 2.2,2.3 1.4,0.9 2.5,1 16.4,1 16.2,0 16.7,-0.1 18.4,-2.7 1.2,-1.8 5.1,-31 4.4,-33.3 -0.6,-2 -2.6,-4.4 -4.5,-5.2 -0.9,-0.4 -3.1,-0.7 -5,-0.7 h -3.5 l -4.8,5.7 c -2.6,3.1 -4.9,5.6 -5.1,5.6 -0.2,0 -2.5,-2.6 -5.1,-5.7 l -4.8,-5.6 h -3.4 c -2.6,0 -3.9,0.2 -5.5,1.1 z"
         id="path164" /><path
         fill="#000000"
         d="m 128.4,129 c -0.2,0.5 -0.5,1.9 -0.5,3.1 0,3.9 -2.7,3.6 39,3.6 42.1,0 39,0.3 39,-4 0,-1.3 -0.2,-2.7 -0.6,-3 -0.4,-0.4 -9.7,-0.6 -38.6,-0.6 -36.8,0 -37.8,0 -38.3,0.9 z"
         id="path166" /><path
         fill="#000000"
         d="m 128.7,144.5 c -0.5,0.5 -0.8,1.6 -0.8,3 0,4.2 -3.2,3.9 39.2,3.9 42.2,0 38.9,0.3 38.9,-3.8 0,-4.1 3.3,-3.8 -39,-3.8 -33.5,0 -37.6,0.1 -38.3,0.7 z"
         id="path168" /><path
         fill="#000000"
         d="m 128.8,160.3 c -1,1.1 -1.1,5 0,6 0.7,0.7 4.8,0.8 38.5,0.8 36.9,0 37.8,0 38.3,-0.9 0.2,-0.5 0.5,-1.9 0.5,-3 0,-4 3,-3.7 -39.1,-3.7 -35.7,0 -37.5,0 -38.2,0.8 z"
         id="path170" /></g></g></g>
</svg>
