<?xml version="1.0" encoding="UTF-8" standalone="no"?>
<!-- Svg Vector Icons : http://www.onlinewebfonts.com/icon -->

<svg
   version="1.1"
   x="0px"
   y="0px"
   viewBox="0 0 256 256"
   enable-background="new 0 0 256 256"
   xml:space="preserve"
   id="svg1468"
   sodipodi:docname="square-grid.svg"
   inkscape:version="1.2.2 (732a01da63, 2022-12-09, custom)"
   xmlns:inkscape="http://www.inkscape.org/namespaces/inkscape"
   xmlns:sodipodi="http://sodipodi.sourceforge.net/DTD/sodipodi-0.dtd"
   xmlns="http://www.w3.org/2000/svg"
   xmlns:svg="http://www.w3.org/2000/svg"><defs
   id="defs1472" /><sodipodi:namedview
   id="namedview1470"
   pagecolor="#ffffff"
   bordercolor="#000000"
   borderopacity="0.25"
   inkscape:showpageshadow="2"
   inkscape:pageopacity="0.0"
   inkscape:pagecheckerboard="0"
   inkscape:deskcolor="#d1d1d1"
   showgrid="false"
   inkscape:zoom="2.2456165"
   inkscape:cx="81.269444"
   inkscape:cy="123.57409"
   inkscape:window-width="1850"
   inkscape:window-height="1016"
   inkscape:window-x="0"
   inkscape:window-y="0"
   inkscape:window-maximized="1"
   inkscape:current-layer="svg1468" />
<metadata
   id="metadata1428"> Svg Vector Icons : http://www.onlinewebfonts.com/icon </metadata>
<g
   id="g1466"
   transform="matrix(1.0737002,0,0,1.0737002,-9.364923,-9.3283936)"><g
     id="g1464"><g
       id="g1432"><path
         fill="#000000"
         d="M 169.9,10 H 162.3 93.7 86.1 10 v 76.1 7.6 68.5 7.6 76.2 h 76.1 7.6 68.5 7.6 76.2 V 169.9 162.3 93.7 86.1 10 Z m -7.6,7.6 V 86.1 H 93.7 V 17.6 Z m 0,76.1 v 68.5 H 93.7 V 93.7 Z M 17.6,17.6 H 86.1 V 86.1 H 17.6 Z m 0,76.1 h 68.5 v 68.5 H 17.6 Z m 0,144.7 v -68.5 h 68.5 v 68.5 z m 76.1,0 v -68.5 h 68.5 v 68.5 z m 144.7,0 h -68.5 v -68.5 h 68.5 z m 0,-76.1 H 169.9 V 93.7 h 68.5 z M 169.9,86.1 V 17.6 h 68.5 v 68.5 z"
         id="path1430" /></g><g
       id="g1434" /><g
       id="g1436" /><g
       id="g1438" /><g
       id="g1440" /><g
       id="g1442" /><g
       id="g1444" /><g
       id="g1446" /><g
       id="g1448" /><g
       id="g1450" /><g
       id="g1452" /><g
       id="g1454" /><g
       id="g1456" /><g
       id="g1458" /><g
       id="g1460" /><g
       id="g1462" /></g></g>
</svg>
