<?xml version="1.0" encoding="UTF-8" standalone="no"?>
<!-- Svg Vector Icons : http://www.onlinewebfonts.com/icon -->

<svg
   version="1.1"
   x="0px"
   y="0px"
   viewBox="0 0 256 256"
   enable-background="new 0 0 256 256"
   xml:space="preserve"
   id="svg174"
   sodipodi:docname="sudoku.svg"
   inkscape:version="1.2.2 (732a01da63, 2022-12-09, custom)"
   xmlns:inkscape="http://www.inkscape.org/namespaces/inkscape"
   xmlns:sodipodi="http://sodipodi.sourceforge.net/DTD/sodipodi-0.dtd"
   xmlns="http://www.w3.org/2000/svg"
   xmlns:svg="http://www.w3.org/2000/svg"><defs
   id="defs178" /><sodipodi:namedview
   id="namedview176"
   pagecolor="#ffffff"
   bordercolor="#000000"
   borderopacity="0.25"
   inkscape:showpageshadow="2"
   inkscape:pageopacity="0.0"
   inkscape:pagecheckerboard="0"
   inkscape:deskcolor="#d1d1d1"
   showgrid="false"
   inkscape:zoom="2.2456165"
   inkscape:cx="107.98816"
   inkscape:cy="122.23815"
   inkscape:window-width="1850"
   inkscape:window-height="1016"
   inkscape:window-x="0"
   inkscape:window-y="0"
   inkscape:window-maximized="1"
   inkscape:current-layer="g172" />
<metadata
   id="metadata148"> Svg Vector Icons : http://www.onlinewebfonts.com/icon </metadata>
<g
   id="g172"
   transform="matrix(1.0400304,0,0,1.0400304,-0.40209494,-9.8675226)"><g
     id="g170"
     transform="matrix(1.0305363,0,0,1.0305363,-8.4269835,0.80338018)"><g
       id="g168"><path
         fill="#000000"
         d="m 12.5,9.9 c -0.7,0.3 -1.5,1 -1.8,1.7 -0.7,1.2 -0.9,230.6 -0.3,232.3 1,2.7 -4.1,2.6 117.6,2.6 121.7,0 116.6,0.1 117.6,-2.6 0.2,-0.5 0.3,-52.9 0.3,-116.3 C 246,15 246,12.3 244.9,11 L 243.8,9.6 128.8,9.5 C 63.2,9.5 13.2,9.6 12.5,9.9 Z M 85.6,52 V 85.5 H 52.4 19.2 V 52 18.5 h 33.2 33.2 z m 76.7,0.1 0.1,33.4 H 128.6 94.8 V 52 18.5 l 33.7,0.1 33.6,0.2 z M 236.8,52 V 85.5 H 204.2 171.6 V 52 18.5 h 32.6 32.6 z M 85.6,127.9 v 33.2 H 52.4 19.2 V 127.9 94.7 h 33.2 33.2 z m 76.8,0 v 33.2 H 128.6 94.8 V 127.9 94.7 h 33.8 33.8 z m 74.4,0 v 33.2 H 204.2 171.6 V 127.9 94.7 h 32.6 32.6 z M 85.6,203.8 v 33.5 H 52.4 19.2 v -33.5 -33.5 h 33.2 33.2 z m 76.7,-0.2 -0.2,33.4 -33.6,0.2 -33.7,0.1 v -33.5 -33.5 h 33.8 33.8 z m 74.5,0.2 v 33.5 h -32.6 -32.6 v -33.5 -33.5 h 32.6 32.6 z"
         id="path150" /><path
         fill="#000000"
         d="m 47.9,33.3 c -3.8,1.9 -4.4,3.3 -4.5,11.9 -0.2,8.4 0.3,10.3 3,12.1 1.8,1.2 6.1,0.8 7.7,-0.6 1.1,-1 1.1,-1 1.1,2.8 0,2.1 -0.3,4.5 -0.7,5.3 -0.6,1.3 -1,1.5 -2.7,1.3 -1.8,-0.2 -2.1,-0.4 -2.6,-2.3 -0.5,-2.1 -0.6,-2.1 -3.3,-2.1 h -2.8 v 2.2 c 0,1.3 0.5,2.9 1.3,4.1 3.5,5.3 12.8,5.3 15.4,-0.1 0.9,-1.7 1,-3.8 1,-15.6 0,-12.4 -0.1,-13.8 -1.1,-15.8 -1.7,-4 -7.5,-5.4 -11.8,-3.2 z m 6.8,5.8 c 0.3,0.6 0.6,3.4 0.6,6.1 0,6.1 -0.5,7.2 -3.2,7.2 -2.5,0 -3.1,-1.3 -3.1,-7.2 0,-5.8 0.6,-7.2 3.1,-7.2 1.4,0 2.1,0.3 2.6,1.1 z"
         id="path152" /><path
         fill="#000000"
         d="m 204.3,34.8 c -0.7,1.3 -1.8,2.1 -2.8,2.3 -2.9,0.6 -3,0.7 -3,2.8 0,1.9 0.1,2 2.3,2 h 2.3 v 14.6 14.6 h 3.2 3.1 V 52 32.8 h -1.9 c -1.7,0 -2.3,0.4 -3.2,2 z"
         id="path154" /><path
         fill="#000000"
         d="m 49.8,109 c -4.4,1.1 -6,3.6 -6,9.2 v 3.5 H 46.4 49 V 119 c 0,-3.5 0.8,-4.8 2.9,-4.8 2.7,0 3.6,1.4 3.2,5 -0.4,3.3 -1,4.8 -4.1,9.9 -1.5,2.5 -2,4 -2.1,6.3 l -0.1,3.1 2.6,0.2 2.6,0.2 0.3,-2.9 c 0.2,-2.1 0.9,-3.8 2.6,-6.5 3.3,-5.1 4.1,-7.3 4.1,-11.5 0,-4 -1.2,-6.6 -3.6,-8.1 -1.6,-1 -5.3,-1.5 -7.6,-0.9 z"
         id="path156" /><path
         fill="#000000"
         d="m 48.5,144.4 0.2,2.8 h 2.9 2.9 l 0.2,-2.8 0.2,-2.7 h -3.2 -3.2 z"
         id="path158" /><path
         fill="#000000"
         d="m 121.5,114.6 c -0.2,3.4 -0.5,8.4 -0.7,11.2 l -0.3,5 h 2.9 c 2.9,0 2.9,-0.1 2.9,-1.7 0,-3.1 2.5,-4.4 5,-2.6 1.1,0.8 1.3,1.3 1.3,7 0,5.3 -0.2,6.3 -1,7.1 -1.2,1.1 -2.6,1.2 -4.2,0.4 -0.9,-0.5 -1.1,-1.2 -1.1,-3.4 0,-1.5 -0.1,-2.9 -0.2,-3 -0.2,-0.1 -1.4,-0.2 -2.9,-0.1 l -2.6,0.2 v 2.8 c 0,5.3 2.4,8.6 6.9,9.3 4.9,0.8 9.7,-1.8 10.9,-5.9 0.7,-2.6 0.7,-12.2 0,-15.2 -0.7,-3.3 -3.3,-5.4 -6.5,-5.4 -1.3,0 -3,0.4 -3.7,0.9 l -1.3,0.9 0.2,-4 0.2,-3.9 5.3,-0.2 5.3,-0.2 v -2.8 -2.9 h -8 -8 z"
         id="path160" /><path
         fill="#000000"
         d="m 47.9,185.1 c -3.3,1.6 -4.3,3.6 -4.5,8.5 l -0.2,4.2 h 2.9 2.9 v -2.9 c 0,-4 0.7,-5.1 3.2,-5.1 1.6,0 2.1,0.3 2.5,1.5 1.5,4 -0.1,8.5 -5.2,14.5 -5.2,6.1 -6.2,8.3 -6.2,13.3 v 3.9 h 8.6 8.6 v -2.9 -2.9 h -5.7 c -3.6,0 -5.7,-0.2 -5.7,-0.6 0,-1.3 2,-4.4 5.6,-8.5 5.2,-6 6.1,-8 6.3,-13.5 0.2,-3.7 0.1,-4.9 -0.9,-6.5 -2.2,-3.8 -8,-5.2 -12.2,-3 z"
         id="path162" /><path
         fill="#000000"
         d="m 199,185.3 c -2.8,1.9 -4,4.6 -4,8.9 v 3.6 h 2.9 2.9 v -2.9 c 0,-4 0.7,-5.1 3.2,-5.1 1.6,0 2.1,0.3 2.6,1.5 1,2.6 -0.2,7.8 -2.9,11.9 -2.6,4 -3.4,6.4 -3.4,9.6 v 2.2 h 2.8 2.8 l 0.2,-3 c 0.2,-2.3 0.7,-3.8 2.7,-6.6 3,-4.5 4.1,-7.4 4.1,-11.5 0,-6 -2.9,-9.3 -8.4,-9.7 -2.9,-0.2 -3.8,0 -5.5,1.1 z"
         id="path164" /><path
         fill="#000000"
         d="m 200.6,217.6 c -0.2,0.2 -0.4,1.5 -0.4,2.9 v 2.5 h 2.9 2.9 l -0.2,-2.8 -0.2,-2.7 -2.3,-0.2 c -1.3,0 -2.5,0.1 -2.7,0.3 z"
         id="path166" /></g></g></g>
</svg>
